<svg id="svg" version="1.1" viewBox="0 0 300 300" width="300" height="300" xmlns="http://www.w3.org/2000/svg"><defs><clipPath id="clip-1"><rect x="0" y="0" transform="scale(0.14648,0.14648)" width="2048" height="2048" fill="none"/></clipPath><linearGradient x1="152.44189" y1="268.229" x2="138.6145" y2="32.00625" gradientUnits="userSpaceOnUse" id="color-1"><stop offset="0" stop-color="#00b17e"/><stop offset="1" stop-color="#45f19a"/></linearGradient><linearGradient x1="124.84453" y1="51.72905" x2="161.84619" y2="215.52393" gradientUnits="userSpaceOnUse" id="color-2"><stop offset="0" stop-color="#001a22"/><stop offset="1" stop-color="#0b6b61"/></linearGradient><linearGradient x1="222.37793" y1="226.61279" x2="212.71143" y2="188.50195" gradientUnits="userSpaceOnUse" id="color-3"><stop offset="0" stop-color="#06121f"/><stop offset="1" stop-color="#172c42"/></linearGradient><linearGradient x1="242.35693" y1="223.53516" x2="228.92139" y2="209.75537" gradientUnits="userSpaceOnUse" id="color-4"><stop offset="0" stop-color="#bdbcbc"/><stop offset="1" stop-color="#f4f3f3"/></linearGradient><linearGradient x1="248.32031" y1="229.0415" x2="243.67969" y2="213.79395" gradientUnits="userSpaceOnUse" id="color-5"><stop offset="0" stop-color="#ababab"/><stop offset="1" stop-color="#cdcccc"/></linearGradient><linearGradient x1="221.68213" y1="241.77246" x2="214.01514" y2="221.69678" gradientUnits="userSpaceOnUse" id="color-6"><stop offset="0" stop-color="#b1b0b0"/><stop offset="1" stop-color="#ededed"/></linearGradient></defs><g clip-path="url(#clip-1)" fill="none" fill-rule="nonzero" stroke="none" stroke-width="1" stroke-linecap="butt" stroke-linejoin="miter" stroke-miterlimit="10" stroke-dasharray="" stroke-dashoffset="0" font-family="none" font-weight="none" font-size="none" text-anchor="none" style="mix-blend-mode: normal"><path d="M0,0h62.89746h8.62544h166.16851h62.30859v62.00552v175.83823v62.15625h-60.85986h-177.99478h-61.14536v-63.75293v-30.36914v-142.48257z" fill="#0b1b2d"/><path d="M0,0h62.89746c-0.92637,0.70381 -1.31309,0.35218 -2.26611,0.4991c-0.93486,0.14412 -6.56104,0.58542 -6.96753,0.93736l0.30234,0.20466c-0.40576,0.13729 -0.19863,0.1165 -0.6457,0.02678l-0.17168,-0.24171c-1.19312,0.17849 -2.25293,0.64887 -3.30527,0.82531l0.01245,-0.03612c-1.11226,0.34163 -1.86372,0.47385 -2.97393,0.71462c-0.73975,0.16044 -1.13394,0.59105 -2.23037,0.81066c-2.76372,0.55359 -6.12393,2.404 -8.73545,3.53398c-2.85132,1.23379 -5.52964,3.25986 -8.08491,4.94246c-0.76816,0.55786 -2.33716,1.69062 -3.06914,2.46357c-0.37222,-0.08471 -0.45469,-0.15879 -0.73462,0.18867c-0.3999,0.49629 -0.50156,1.16338 -1.12954,1.42764c-1.46865,0.61787 -2.34771,1.81831 -3.44033,2.95679c-0.9709,1.01162 -1.95586,2.02573 -2.98198,3.02021c-0.07354,0.31919 -0.06753,0.29634 0.02959,0.61143c-0.60278,0.47812 -1.58188,1.08149 -1.91722,1.65908c0.05918,0.17036 0.10169,0.32534 0.13289,0.50405c-0.55737,0.45308 -1.2449,0.74048 -1.4912,1.25801l0.06703,0.24141c0.21344,-0.11924 0.34756,-0.24009 0.5855,-0.26191c-0.83369,1.26665 -1.76963,1.44097 -2.11477,2.25615c0.15576,0.26396 0.06161,0.13755 0.28837,0.37471l-0.01198,0.19878l-0.53905,-0.1333c-0.65048,0.44238 -2.38891,3.40049 -2.64281,4.15723c-1.42516,2.43296 -2.55305,4.80366 -3.7228,7.35674c-1.99964,5.36821 -5.38969,16.78872 -4.64414,22.27339l-0.4951,0.62563z" fill="#000000"/><path d="M237.69141,0h62.30859v62.00552c-0.70166,-2.04141 -0.69434,-6.55239 -1.29199,-8.87842c-0.5874,-2.28765 -1.01514,-4.6979 -1.71973,-6.9731c-2.94873,-9.53071 -9.28418,-20.63804 -16.88965,-27.23877c-1.40625,-1.84966 -0.56982,-0.99023 -2.32324,-1.88071l0.08057,-0.37646c-0.7207,-0.66826 -1.75635,-1.64971 -2.53418,-2.19176l-0.31494,0.07824c-0.34424,-0.15063 -0.40283,-0.49724 -0.62256,-0.93551c-0.53467,-0.49345 -0.87158,-0.16523 -1.48828,-0.53363l0.10693,-0.32446c-0.38965,-0.40093 -1.58496,-1.17062 -2.09912,-1.5201c-4.771,-3.24504 -10.396,-5.96811 -15.89355,-7.73191c-1.98926,-0.55854 -3.99463,-1.06499 -5.99854,-1.56877c-1.10742,-0.27842 -2.32324,-0.39932 -3.38086,-0.76954c-0.08643,0.03679 -0.20215,0.09542 -0.29297,0.07999c-1.32275,-0.27679 -2.68945,-0.4066 -4.01221,-0.6247c-1.0459,-0.17251 -2.90186,0.00509 -3.63428,-0.61589z" fill="#000000"/><path d="M0,236.24707c0.49329,1.45605 0.49051,5.1123 0.76941,6.93896c1.26633,8.29395 3.40115,15.42188 7.4994,22.81494c0.35131,0.73828 0.51429,0.94482 1.01635,1.60107c0.50284,1.4707 2.41042,3.91113 3.34195,5.22363c9.51356,13.40332 24.24608,22.80762 40.38763,25.86768c2.5853,0.49072 5.65313,0.69873 8.13062,1.30664h-61.14536z" fill="#000000"/><path d="M300,237.84375v62.15625h-60.85986c2.51367,-0.59473 5.14014,-0.72363 7.61865,-1.2583c1.32861,-0.28711 5.68506,-1.11328 6.66211,-1.6875c0.96094,-0.08643 2.43311,-0.70605 3.3208,-1.0708c1.20703,-0.08936 5.68213,-2.21191 6.8291,-2.94434c0.6665,-0.15967 2.31445,-1.07959 2.90332,-1.48242c2.61475,-1.28906 5.44629,-3.38086 7.85596,-5.07568c0.86719,-0.60937 3.00586,-2.80225 3.83203,-3.20508c0.77344,-0.55518 1.66113,-1.54834 2.27197,-2.27344l0.26074,-0.33691c0.50098,-0.39697 0.83936,-0.7998 1.26709,-1.27002c2.10498,-1.80908 7.05762,-8.31299 8.3291,-10.86621c0.47607,-0.56104 1.26416,-2.09326 1.63477,-2.78613c0.46729,-0.66797 1.37256,-2.51074 1.67285,-3.25195c0.65625,-1.46924 1.13672,-2.39795 1.64795,-3.94629c0.30469,-0.36182 0.56982,-1.30518 0.71045,-1.76367c0.38818,-1.05469 0.69141,-2.05664 1.01953,-3.13184c0.14648,-0.18604 0.42627,-1.18359 0.50098,-1.45166c0.79395,-2.84033 1.31396,-5.77441 1.72119,-8.69092c0.24902,-1.77246 0.36182,-3.97266 0.80127,-5.66309z" fill="#000000"/><path d="M0.4951,62.76973c0.00934,0.02124 0.01798,7.54336 0.01486,8.054l-0.00411,19.52695l0.06832,35.18628c-0.00325,6.37822 -0.35801,14.85234 -0.00904,21.07339c0.03358,-5.67524 -0.22868,-13.39131 0.09791,-18.85474c0.19122,0.84712 0.19719,6.76963 0.15627,8.10586c-0.14264,4.6582 0.20554,10.42236 -0.14877,14.94419l-0.11505,-2.63672c-0.06668,2.07715 -0.06781,4.15576 -0.00338,6.23291c0.05955,1.60254 0.29363,5.21924 0.10348,6.58594l-0.10565,-1.61426c-0.11258,4.37842 -0.13558,8.75977 -0.06898,13.13965c0.01643,1.12207 -0.02418,3.78369 0.09656,4.80762c0.00466,-1.3374 -0.01239,-2.69971 0.08426,-4.03125c0.06791,1.86768 0.22956,8.5708 -0.05049,10.18359l-0.02632,-0.21826c-0.26822,5.68652 -0.03555,11.22363 -0.0723,16.90576c-0.00617,0.95361 0.06971,4.86914 -0.11246,5.55615c-0.28617,0.17285 -0.14715,0.13623 -0.4002,0.16113v-142.48257z" fill="#152941"/><path d="M62.89746,0h8.62544c-3.90688,0.63694 -4.53105,0.38141 -8.28633,0.53914c0.46069,0.22147 4.26211,-0.04176 5.40894,0.13287c-4.37285,0.31604 -8.43794,0.36701 -12.80596,1.03711c-15.0085,2.22709 -28.73115,9.73208 -38.70366,21.1672c-1.02041,1.16104 -1.996,2.3606 -2.92465,3.59619c-0.56707,0.76421 -1.42173,2.05928 -2.02096,2.71685l-0.14638,-0.07368l0.01198,-0.19878c-0.22676,-0.23716 -0.13261,-0.11074 -0.28837,-0.37471c0.34513,-0.81519 1.28108,-0.9895 2.11477,-2.25615c-0.23793,0.02183 -0.37206,0.14268 -0.5855,0.26191l-0.06703,-0.24141c0.2463,-0.51753 0.93382,-0.80493 1.4912,-1.25801c-0.0312,-0.17871 -0.07371,-0.33369 -0.13289,-0.50405c0.33533,-0.57759 1.31443,-1.18096 1.91722,-1.65908c-0.09712,-0.31509 -0.10313,-0.29224 -0.02959,-0.61143c1.02612,-0.99448 2.01108,-2.00859 2.98198,-3.02021c1.09263,-1.13848 1.97168,-2.33892 3.44033,-2.95679c0.62798,-0.26426 0.72964,-0.93135 1.12954,-1.42764c0.27993,-0.34746 0.3624,-0.27338 0.73462,-0.18867c0.73198,-0.77295 2.30098,-1.90572 3.06914,-2.46357c2.55527,-1.68259 5.23359,-3.70866 8.08491,-4.94246c2.61152,-1.12998 5.97173,-2.98039 8.73545,-3.53398c1.09644,-0.21961 1.49062,-0.65021 2.23037,-0.81066c1.11021,-0.24078 1.86167,-0.37299 2.97393,-0.71462l-0.01245,0.03612c1.05234,-0.17644 2.11216,-0.64682 3.30527,-0.82531l0.17168,0.24171c0.44707,0.08972 0.23994,0.11051 0.6457,-0.02678l-0.30234,-0.20466c0.40649,-0.35194 6.03267,-0.79324 6.96753,-0.93736c0.95303,-0.14692 1.33975,0.20471 2.26611,-0.4991z" fill="#152941"/><path d="M245.63086,1.16061c1.05762,0.37023 2.27344,0.49112 3.38086,0.76954c2.00391,0.50379 4.00928,1.01023 5.99854,1.56877c5.49756,1.7638 11.12256,4.48687 15.89355,7.73191c0.51416,0.34948 1.70947,1.11917 2.09912,1.5201l-0.10693,0.32446c0.6167,0.36839 0.95361,0.04018 1.48828,0.53363c0.21973,0.43827 0.27832,0.78488 0.62256,0.93551l0.31494,-0.07824c0.77783,0.54205 1.81348,1.5235 2.53418,2.19176l-0.08057,0.37646c1.75342,0.89048 0.91699,0.03105 2.32324,1.88071c0.38818,1.00591 1.25537,1.21479 1.62891,2.28882c-0.27539,-0.10313 -3.60352,-3.37764 -4.15869,-3.87114c-7.95996,-7.06459 -17.54443,-12.07591 -27.9126,-14.49498c-1.53516,-0.35824 -3.2373,-0.5941 -4.66699,-1.0302c0.30762,-0.07014 0.58154,-0.13411 0.88623,-0.21979z" fill="#152941"/><path d="M8.86204,33.1396c0.84962,0.32124 0.26468,-0.35874 0.81168,0.06841c-0.85704,2.28691 -2.92188,5.04419 -3.69176,7.80732c-0.20292,-0.23394 -0.13201,-0.17476 -0.20689,-0.52954l-0.26023,0.15908l-0.3756,-0.14854c1.16975,-2.55308 2.29764,-4.92378 3.7228,-7.35674z" fill="#152941"/><path d="M263.5708,293.03906l0.05127,-0.26807c1.04736,-0.64453 1.61426,-0.93018 2.74072,-1.43701l0.11133,0.22266c-0.58887,0.40283 -2.23682,1.32275 -2.90332,1.48242z" fill="#152941"/><path d="M293.59863,262.49121c-0.12744,-0.26074 -0.08643,-0.18896 -0.11426,-0.49805c0.37061,-0.89648 1.13379,-2.86523 1.76221,-3.44824c-0.51123,1.54834 -0.9917,2.47705 -1.64795,3.94629z" fill="#152941"/><path d="M253.4209,297.0542c0.30029,-0.52734 2.82715,-1.31396 3.3208,-1.0708c-0.8877,0.36475 -2.35986,0.98438 -3.3208,1.0708z" fill="#152941"/><path d="M278.16211,283.27588l0.0835,-0.41309c0.47168,-0.58008 1.44727,-1.75195 2.18848,-1.86035c-0.61084,0.7251 -1.49854,1.71826 -2.27197,2.27344z" fill="#2b4f6d"/><path d="M290.29102,268.5293c0.08203,-1.01074 0.76904,-1.96436 1.31104,-2.82129l0.32373,0.03516c-0.37061,0.69287 -1.15869,2.2251 -1.63477,2.78613z" fill="#152941"/><path d="M295.95703,256.78125l-0.12012,-0.43066c0.19336,-0.81299 0.59912,-2.05518 1.13965,-2.70117c-0.32812,1.0752 -0.63135,2.07715 -1.01953,3.13184z" fill="#152941"/><path d="M280.69482,280.66553c0.17139,-0.8291 0.43945,-1.16895 1.26709,-1.27002c-0.42773,0.47021 -0.76611,0.87305 -1.26709,1.27002z" fill="#152941"/><path d="M8.26881,266.00098c0.66163,0.19336 1.05157,0.94043 1.01635,1.60107c-0.50206,-0.65625 -0.66504,-0.86279 -1.01635,-1.60107z" fill="#152941"/><path d="M148.77979,31.01016c3.49805,-0.29912 11.73633,-0.00513 15.23145,0.53174c5.39355,0.35229 15.12451,2.34229 20.27051,4.10347c5.91357,1.75386 16.27002,5.80386 21.54639,9.08906c2.01563,0.90557 4.28467,2.46445 6.19189,3.65537c10.45459,6.52749 17.72461,13.82563 25.91748,22.79399c1.15137,-1.29448 5.27197,-6.29766 6.57129,-6.67456c1.00195,0.07588 1.54102,0.61553 1.66846,1.61763c0.61084,4.78667 1.04004,9.59839 1.62158,14.3896c0.08496,0.70107 0.19629,1.44829 0.20947,2.15127c0.84814,4.86021 1.08984,10.59756 1.59375,15.55049c0.12891,1.27617 -1.39893,1.61514 -2.44775,1.51333c0.15674,0.20156 0.07471,0.10723 0.29736,0.32666l0.17578,0.17183c-0.26221,0.57393 -0.74854,0.68291 -1.40771,1.0563c-3.18018,-0.96035 -28.15137,-8.01885 -29.26025,-8.9521c-0.41748,-0.35186 -0.63574,-0.90293 -0.63867,-1.44097c-0.00439,-0.70986 0.3252,-1.33535 0.80859,-1.83237c0.98877,-1.43979 3.79688,-3.11777 5.38184,-4.21113c-18.42187,-20.29131 -39.52148,-31.42148 -67.12793,-32.77954c-4.52197,-0.22251 -9.28491,0.1541 -13.76792,0.74106c-19.81099,2.59453 -37.28335,11.52144 -51.93223,24.96035c-13.67139,12.54199 -23.5062,30.38848 -27.78486,48.36504c-1.59448,6.69932 -2.39634,13.46689 -2.6562,20.34214c-0.96431,25.50703 9.75542,50.78584 26.94302,69.3249c5.20898,5.57813 11.03687,10.54395 17.37056,14.80225c0.64043,0.4248 2.10425,1.46777 2.66323,1.77832c-0.98965,0.10986 -6.329,-4.34619 -7.12134,-4.6333c-0.24653,0.7749 -1.16646,1.50146 -1.1918,2.25439c0.33779,0.64746 2.68228,2.13574 3.43638,2.62793c5.66001,3.77344 11.67246,6.9917 17.95298,9.60498c0.28184,0.11719 1.01235,0.375 1.10127,0.69287c23.3168,9.76025 49.52988,9.99463 73.01719,0.65332c0.01465,-0.00732 0.03076,-0.01318 0.04541,-0.02051c0.72656,0.12598 0.42627,0.16113 1.13379,-0.08789l0.00586,0.26074c-1.11475,1.11768 -4.73291,1.71973 -4.54395,2.82568c0.6123,3.58447 3.17432,5.70117 5.88867,7.77832c0.90967,0.6958 1.94824,2.37891 3.14502,2.96191c1.19092,0.80127 3.00293,1.07373 4.0415,1.8208c-1.95996,0.66943 -4.4165,1.79004 -6.50391,2.55322c-3.70459,1.32422 -7.48096,2.4375 -11.31152,3.33545c-7.09277,1.70068 -13.3623,2.45801 -20.65723,2.79492c-24.37485,1.12793 -48.51401,-5.20605 -69.19453,-18.15674c-27.28916,-16.40332 -46.73145,-43.20264 -53.85688,-74.23535c-5.59131,-23.55908 -3.06401,-50.45552 6.23979,-72.70957c1.63828,-3.91846 3.87773,-9.02842 6.10884,-12.64849c4.80029,-9.39668 14.42637,-21.26602 22.04531,-28.45107c16.31689,-15.48589 36.9312,-25.6812 59.14189,-29.25015c3.51167,-0.56748 9.90439,-1.3979 13.44478,-1.29434z" fill="url(#color-1)"/><path d="M120.39639,242.93115c-1.08574,-0.20361 -5.5856,-2.33936 -6.66196,-2.8623c-12.9498,-6.31934 -24.49233,-15.18457 -33.93735,-26.06689c-17.30083,-19.99805 -26.01562,-46.01367 -24.25254,-72.398c4.11797,-54.15322 49.66846,-98.12241 105.1415,-93.78882c25.77979,2.01401 48.58887,15.11777 65.25146,34.65015c-1.13965,0.84976 -2.24854,1.59404 -3.42627,2.38447c-18.42187,-20.29131 -39.52148,-31.42148 -67.12793,-32.77954c-4.52197,-0.22251 -9.28491,0.1541 -13.76792,0.74106c-19.81099,2.59453 -37.28335,11.52144 -51.93223,24.96035c-13.67139,12.54199 -23.5062,30.38848 -27.78486,48.36504c-1.59448,6.69932 -2.39634,13.46689 -2.6562,20.34214c-0.96431,25.50703 9.75542,50.78584 26.94302,69.3249c5.20898,5.57813 11.03687,10.54395 17.37056,14.80225c0.64043,0.4248 2.10425,1.46777 2.66323,1.77832c-0.98965,0.10986 -6.329,-4.34619 -7.12134,-4.6333c-0.24653,0.7749 -1.16646,1.50146 -1.1918,2.25439c0.33779,0.64746 2.68228,2.13574 3.43638,2.62793c5.66001,3.77344 11.67246,6.9917 17.95298,9.60498c0.28184,0.11719 1.01235,0.375 1.10127,0.69287z" fill="url(#color-2)"/><path d="M246.21973,101.28633c-3.18018,-0.96035 -28.15137,-8.01885 -29.26025,-8.9521c-0.41748,-0.35186 -0.63574,-0.90293 -0.63867,-1.44097c-0.00439,-0.70986 0.3252,-1.33535 0.80859,-1.83237c0.09521,0.4875 0.25195,1.29609 0.6709,1.50732c1.18213,0.59575 10.43848,3.4856 11.27197,3.55547c4.30957,1.37754 8.68799,2.62603 13.00781,3.96753c0.75879,0.23569 4.58203,1.34165 5.07422,1.64033c0.15674,0.20156 0.07471,0.10723 0.29736,0.32666l0.17578,0.17183c-0.26221,0.57393 -0.74854,0.68291 -1.40771,1.0563z" fill="#003130"/><path d="M53.95444,90.05698c4.80029,-9.39668 14.42637,-21.26602 22.04531,-28.45107c16.31689,-15.48589 36.9312,-25.6812 59.14189,-29.25015c3.51167,-0.56748 9.90439,-1.3979 13.44478,-1.29434c-1.5249,0.54902 -4.22607,0.40679 -5.92661,0.60264c-4.01455,0.48281 -8.01006,1.11182 -11.97876,1.88569c-16.01514,3.31963 -31.1291,10.04458 -44.3168,19.7187c-11.4624,8.53389 -21.4708,19.73394 -29.07158,31.80352c-0.51138,0.81196 -2.75464,4.91162 -3.33823,4.98501z" fill="#25eb97"/><path d="M248.0083,82.66772c0.84814,4.86021 1.08984,10.59756 1.59375,15.55049c0.12891,1.27617 -1.39893,1.61514 -2.44775,1.51333c-0.49219,-0.29868 -4.31543,-1.40464 -5.07422,-1.64033c-4.31982,-1.3415 -8.69824,-2.58999 -13.00781,-3.96753c1.32715,-0.31479 13.91602,4.33535 16.17334,4.61587c0.55371,0.06885 1.91895,0.79922 2.8125,0.85122l0.01172,-0.78955c0.44824,-0.83906 0.43213,-1.19912 1.37402,-1.16982c-0.38232,-3.18354 -0.74707,-6.36914 -1.09424,-9.55664c-0.14355,-1.32964 -0.479,-3.92534 -0.4834,-5.16855z" fill="#25eb97"/><path d="M205.82813,44.73442c-0.79687,0.0939 -9.43066,-4.53325 -11.1958,-5.0606c-1.84131,-0.5499 -4.81494,-2.02061 -6.83789,-2.59907c-0.99316,-0.28418 -2.48877,-0.72129 -3.41016,-1.13496l-0.10254,-0.29443c5.91357,1.75386 16.27002,5.80386 21.54639,9.08906z" fill="#25eb97"/><path d="M148.77979,31.01016c3.49805,-0.29912 11.73633,-0.00513 15.23145,0.53174c-0.78369,0.27495 -13.26123,-0.32769 -15.23145,-0.53174z" fill="#25eb97"/><path d="M187.12354,234.05127c-0.31348,-0.39111 -1.18945,-1.78125 -1.46777,-2.24561c-4.93799,-8.23096 -6.42773,-18.07764 -4.14551,-27.3999c2.50781,-10.02686 8.95166,-19.06494 17.85938,-24.37646c8.66455,-5.10645 19.00342,-6.56396 28.74316,-4.05322c9.5918,2.52832 17.78467,8.76855 22.77393,17.34375c4.32861,7.41797 6.52734,18.30322 4.33887,26.6543c-0.11865,1.38135 -0.78662,3.60059 -1.23779,4.91455c-2.27344,6.7251 -6.36182,12.68994 -11.81396,17.23682c-7.16016,5.98242 -15.56689,8.6001 -24.78662,8.80225c-5.2998,3.29736 -8.2251,5.56201 -14.25732,8.1958c-1.03857,-0.74707 -2.85059,-1.01953 -4.0415,-1.8208c-1.19678,-0.58301 -2.23535,-2.26611 -3.14502,-2.96191c-2.71436,-2.07715 -5.27637,-4.19385 -5.88867,-7.77832c-0.18896,-1.10596 3.4292,-1.70801 4.54395,-2.82568l-0.00586,-0.26074c-0.70752,0.24902 -0.40723,0.21387 -1.13379,0.08789c0.50098,-0.2373 0.99023,-0.40723 1.2085,-0.90088c-0.18896,-0.37646 -3.104,-3.09375 -3.65918,-3.71191c-1.37109,-1.5293 -2.80811,-3.11719 -3.88477,-4.8999z" fill="#0b1b2d"/><path d="M253.49121,219.45703c0.57568,1.42969 -2.35986,8.23828 -3.16699,9.62842l1.08398,1.08398c1.18213,-2.25146 2.12109,-4.62158 2.80371,-7.0708c0.21533,-0.75732 0.56836,-2.6499 1.01367,-3.12451c-0.11865,1.38135 -0.78662,3.60059 -1.23779,4.91455c-2.27344,6.7251 -6.36182,12.68994 -11.81396,17.23682c-7.16016,5.98242 -15.56689,8.6001 -24.78662,8.80225c-5.2998,3.29736 -8.2251,5.56201 -14.25732,8.1958c-1.03857,-0.74707 -2.85059,-1.01953 -4.0415,-1.8208c-1.19678,-0.58301 -2.23535,-2.26611 -3.14502,-2.96191c-2.71436,-2.07715 -5.27637,-4.19385 -5.88867,-7.77832c-0.18896,-1.10596 3.4292,-1.70801 4.54395,-2.82568l-0.00586,-0.26074c-0.70752,0.24902 -0.40723,0.21387 -1.13379,0.08789c0.50098,-0.2373 0.99023,-0.40723 1.2085,-0.90088c-0.18896,-0.37646 -3.104,-3.09375 -3.65918,-3.71191c-1.37109,-1.5293 -2.80811,-3.11719 -3.88477,-4.8999c1.28467,0.7251 3.34277,4.86914 4.65527,4.88965c0.43213,-0.31494 0.44385,-0.38086 0.74561,-0.80859c-0.3457,-1.24951 -3.78809,-3.69141 -4.41797,-6.25049c7.85156,12.41162 22.48975,18.76465 36.91846,16.02393c14.42725,-2.74219 25.71533,-14.02295 28.46631,-28.44873z" fill="#016f57"/><path d="M187.12354,234.05127c-0.31348,-0.39111 -1.18945,-1.78125 -1.46777,-2.24561c-4.93799,-8.23096 -6.42773,-18.07764 -4.14551,-27.3999c2.50781,-10.02686 8.95166,-19.06494 17.85938,-24.37646c8.66455,-5.10645 19.00342,-6.56396 28.74316,-4.05322c9.5918,2.52832 17.78467,8.76855 22.77393,17.34375c4.32861,7.41797 6.52734,18.30322 4.33887,26.6543c-0.44531,0.47461 -0.79834,2.36719 -1.01367,3.12451c-0.68262,2.44922 -1.62158,4.81934 -2.80371,7.0708l-1.08398,-1.08398c0.80713,-1.39014 3.74268,-8.19873 3.16699,-9.62842c3.00586,-15.76465 -4.85156,-31.60107 -19.22314,-38.74365c-14.37158,-7.14111 -31.74023,-3.84082 -42.48926,8.07568c-10.75049,11.91504 -12.25049,29.53125 -3.67236,43.09277c0.62988,2.55908 4.07227,5.00098 4.41797,6.25049c-0.30176,0.42773 -0.31348,0.49365 -0.74561,0.80859c-1.3125,-0.02051 -3.37061,-4.16455 -4.65527,-4.88965z" fill="#039f99"/><path d="M209.75537,182.76123c5.66895,-1.76074 11.04492,-1.74902 16.72852,-0.1582c6.89209,2.05957 11.97949,5.33789 16.35791,11.13574c0.57861,0.67236 -0.1333,-0.1875 0.25195,0.36328c0.88623,1.26709 1.58789,2.13428 2.33643,3.51416c2.11084,3.89063 3.35889,7.90576 3.74561,12.31641c0.07617,0.86426 0.271,1.92188 0.13037,2.77295c-0.12012,1.32275 -0.09521,3.04541 -0.28125,4.27588c-0.84082,5.57959 -2.91504,9.95215 -6.09668,14.50781c0.22998,-1.69043 0.22852,-2.69238 0.25049,-4.39453l-0.32666,-0.04102c-2.58398,1.57617 -5.3291,2.69385 -8.22803,3.5376c-0.57275,0.12891 -1.59082,0.32373 -2.0918,0.54932l-0.11719,0.22998l-0.23145,0.02637c-0.25195,0.03076 -0.43213,0.0249 -0.62842,0.16406c-0.42041,2.16943 -4.96289,7.88232 -6.6123,9.37939c1.32275,0.57861 2.35254,0.78369 3.76172,1.04443c-7.67285,2.68799 -13.58643,2.37891 -21.19336,0.00146c1.69629,-0.22705 2.25146,-0.36768 3.81006,-1.06641c-2.97656,-2.3584 -5.33496,-5.94287 -7.13818,-9.25195c-1.1499,0.05273 -4.97021,-1.02979 -6,-1.81934l0.02637,-0.25635c-1.875,-0.89355 -3.42627,-1.42236 -5.0918,-2.71143l-0.18604,1.41797c0.0835,1.13965 0.16699,2.02295 0.33984,3.14941c-4.6377,-6.58008 -6.36768,-11.70557 -6.31055,-19.78271c0.33545,-0.95654 0.48633,-4.59814 0.87891,-6.07764c0.89209,-3.34863 2.12842,-6.09229 3.81299,-9.11279c0.58594,-1.04883 1.44434,-1.68018 1.92773,-2.57666c4.56592,-5.90479 9.22412,-8.80664 16.1748,-11.13721z" fill="url(#color-3)"/><path d="M209.75537,182.76123c5.66895,-1.76074 11.04492,-1.74902 16.72852,-0.1582c6.89209,2.05957 11.97949,5.33789 16.35791,11.13574c-0.39404,-0.06006 -2.01855,-0.81592 -3.07617,-1.05469c0.63135,2.35254 1.80615,8.25586 0.86133,10.37549c-0.39844,0.89648 -9.07617,3.33984 -10.41943,3.73535c-3.52002,-2.51514 -6.93018,-5.17676 -10.50293,-7.61572c-0.52881,-0.36035 -1.07959,-0.70605 -1.57764,-1.10889c-0.00439,-0.99316 0.05273,-3.12891 -0.03223,-4.02832c-0.67236,-1.85742 0.01904,-4.24512 -0.67969,-6.59473l-0.16113,0.16846c0.01904,0.47461 -0.00586,0.53613 -0.11279,0.97998l-0.03076,0.12451c-0.01318,-0.41602 -0.00439,-0.98291 -0.31787,-1.26416c-1.95996,-1.75928 -6.92725,-2.4624 -9.28418,-2.63086c0.6665,-0.81299 1.47217,-1.30371 2.24707,-2.06396z" fill="#f9f8f8"/><path d="M209.75537,182.76123c5.66895,-1.76074 11.04492,-1.74902 16.72852,-0.1582c0.61377,0.69287 1.27881,1.41797 1.86914,2.12109c-3.09229,0.00293 -7.53223,1.09277 -10.21143,2.66162c-0.01611,2.04053 0.05566,4.67725 -0.04687,6.65625c-0.67236,-1.85742 0.01904,-4.24512 -0.67969,-6.59473l-0.16113,0.16846c0.01904,0.47461 -0.00586,0.53613 -0.11279,0.97998l-0.03076,0.12451c-0.01318,-0.41602 -0.00439,-0.98291 -0.31787,-1.26416c-1.95996,-1.75928 -6.92725,-2.4624 -9.28418,-2.63086c0.6665,-0.81299 1.47217,-1.30371 2.24707,-2.06396z" fill="#152941"/><path d="M212.521,184.55566c1.19531,0.66504 4.03418,0.89941 5.24268,1.93066l-0.0835,0.16846l-0.33398,-0.0791c-1.35791,-0.53467 -4.39893,-1.70215 -5.75684,-1.75781c0.28418,-0.25342 0.47461,-0.19482 0.93164,-0.26221z" fill="#2b4f6d"/><path d="M230.54736,207.79688c3.42334,-1.14111 6.854,-2.26465 10.29053,-3.37061c2.18701,2.03027 5.56787,7.06641 6.18018,9.99902l0.11865,-0.00293c0.68262,-0.79102 1.48389,-2.25 1.92334,-2.61328l0.15088,0.09082l0.09521,0.80566c-0.12012,1.32275 -0.09521,3.04541 -0.28125,4.27588c-0.84082,5.57959 -2.91504,9.95215 -6.09668,14.50781c0.22998,-1.69043 0.22852,-2.69238 0.25049,-4.39453l-0.32666,-0.04102c-2.58398,1.57617 -5.3291,2.69385 -8.22803,3.5376c-0.57275,0.12891 -1.59082,0.32373 -2.0918,0.54932l-0.11719,0.22998l-0.23145,0.02637c-0.25195,0.03076 -0.43213,0.0249 -0.62842,0.16406c-1.8501,-2.33203 -4.07959,-5.63818 -5.8418,-8.1123l0.81152,-0.49072c-0.07324,-0.10986 -0.4585,-0.71924 -0.43066,-0.82617c0.31787,-1.16895 0.71924,-2.354 1.12939,-3.49658c1.2832,-3.57568 2.2998,-7.18066 3.32373,-10.83838z" fill="url(#color-4)"/><path d="M247.13672,214.42236c0.68262,-0.79102 1.48389,-2.25 1.92334,-2.61328l0.15088,0.09082l0.09521,0.80566c-0.12012,1.32275 -0.09521,3.04541 -0.28125,4.27588c-0.84082,5.57959 -2.91504,9.95215 -6.09668,14.50781c0.22998,-1.69043 0.22852,-2.69238 0.25049,-4.39453c0.42627,-0.73096 0.94922,-1.62305 1.01074,-2.46826l0.05713,-0.10254c0.18896,-0.69434 1.00195,-2.5957 1.31104,-3.46582c0.83203,-2.77588 0.84961,-4.15283 1.46045,-6.63281z" fill="url(#color-5)"/><path d="M247.01807,214.42529l0.11865,-0.00293c0.01318,2.06104 -1.45312,8.7085 -2.89014,10.10156c0.18896,-0.69434 1.00195,-2.5957 1.31104,-3.46582c0.83203,-2.77588 0.84961,-4.15283 1.46045,-6.63281z" fill="#abaaab"/><path d="M234.62402,230.59131l-0.63428,-0.24023c0.25635,-0.8584 2.14746,-2.44775 2.89014,-3.13916c0.62402,-0.58154 2.27051,-2.65723 2.84766,-2.98975c1.96582,-1.13232 3.71045,-2.08301 5.56787,-3.41016l0.26221,0.24609c-0.30908,0.87012 -1.12207,2.77148 -1.31104,3.46582l-0.05713,0.10254c-0.06152,0.84521 -0.58447,1.7373 -1.01074,2.46826l-0.32666,-0.04102c-2.58398,1.57617 -5.3291,2.69385 -8.22803,3.5376z" fill="#bebdbd"/><path d="M242.85205,227.05371c0.30176,-0.41309 0.90088,-1.74463 1.3374,-2.42725c-0.06152,0.84521 -0.58447,1.7373 -1.01074,2.46826z" fill="#abaaab"/><path d="M225.71338,223.44873l0.81152,-0.49072c0.98877,1.33594 5.20605,7.48389 6.00732,8.18262l-0.11719,0.22998l-0.23145,0.02637c-0.25195,0.03076 -0.43213,0.0249 -0.62842,0.16406c-1.8501,-2.33203 -4.07959,-5.63818 -5.8418,-8.1123z" fill="#000000"/><path d="M210.33984,222.80127c4.91895,0.22852 9.61523,0.33545 14.52246,-0.03516c0.38379,-0.0293 0.62109,0.40723 0.85107,0.68262c1.76221,2.47412 3.9917,5.78027 5.8418,8.1123c-0.42041,2.16943 -4.96289,7.88232 -6.6123,9.37939c1.32275,0.57861 2.35254,0.78369 3.76172,1.04443c-7.67285,2.68799 -13.58643,2.37891 -21.19336,0.00146c1.69629,-0.22705 2.25146,-0.36768 3.81006,-1.06641c-2.97656,-2.3584 -5.33496,-5.94287 -7.13818,-9.25195c0.76904,-1.36963 5.20459,-7.79883 6.15674,-8.8667z" fill="url(#color-6)"/><path d="M211.32129,240.91992c0.8833,-0.01318 3.41455,0.39111 4.41064,0.53174c2.67773,0.38232 4.50732,0.15527 7.16455,-0.28857c0.54639,-0.09229 1.52637,-0.27979 2.04639,-0.22266c1.32275,0.57861 2.35254,0.78369 3.76172,1.04443c-7.67285,2.68799 -13.58643,2.37891 -21.19336,0.00146c1.69629,-0.22705 2.25146,-0.36768 3.81006,-1.06641z" fill="#abaaab"/><path d="M194.76123,204.64307c3.37646,1.03271 6.67969,2.20166 10.03711,3.23438c1.26563,4.85742 2.80371,9.64014 4.60254,14.32471c-1.42676,2.13428 -4.56592,6.97852 -6.13916,8.81689c-1.71826,-0.3457 -3.40723,-0.82178 -5.05225,-1.42676c-1.875,-0.89355 -3.42627,-1.42236 -5.0918,-2.71143l-0.18604,1.41797c0.0835,1.13965 0.16699,2.02295 0.33984,3.14941c-4.6377,-6.58008 -6.36768,-11.70557 -6.31055,-19.78271c0.84082,1.15137 0.94629,1.69482 2.02148,2.90918c0.90234,-2.86963 3.47461,-8.01416 5.77881,-9.93164z" fill="#f9f8f8"/><path d="M192.93164,228.29883c-0.13623,-2.39941 -1.5498,-3.29736 -1.70654,-4.45605l0.23145,0.06152c0.53174,0.65039 1.21582,2.14307 1.66113,2.97656z" fill="#bebdbd"/><path d="M209.75537,182.76123c-0.7749,0.76025 -1.58057,1.25098 -2.24707,2.06396c2.35693,0.16846 7.32422,0.87158 9.28418,2.63086c0.31348,0.28125 0.30469,0.84814 0.31787,1.26416c-0.20947,2.82422 0.02197,6.41895 -0.06738,9.34131c-3.89502,2.91064 -8.0625,5.78027 -11.85498,8.81396c-2.57666,-0.74414 -7.71094,-2.18408 -10.12207,-3.28418c-0.60498,-3.33984 0.15381,-7.43848 1.16602,-10.63477c-1.29492,0.19189 -1.99365,0.88477 -2.65137,0.94189c4.56592,-5.90479 9.22412,-8.80664 16.1748,-11.13721z" fill="#f9f8f8"/><path d="M217.29053,199.0459c0.39111,0.03516 0.56836,0.08789 0.7998,0.33105l-0.15674,0.17432c-0.80859,0.0791 -7.74756,4.84131 -8.04932,5.38477c-0.23145,0.28125 -0.67676,0.54639 -1.02832,0.66211l-0.18896,-0.12891c0.26514,-0.50391 7.59521,-5.7334 8.62354,-6.42334z" fill="#2b4f6d"/><path d="M194.19141,196.53369c0.32666,0.41162 0.01318,2.1665 -0.04248,2.77002c-0.14941,1.60107 -0.11279,3.12158 -0.05566,4.71973l-1.15869,1.18799l-0.09814,-0.03516l0.0791,-0.01611l0.02344,-0.28857c0.29443,-0.45264 0.49219,-0.57422 0.90527,-0.9082c-0.36768,-2.80811 -0.15527,-4.63037 0.34717,-7.42969z" fill="#2b4f6d"/><path d="M107.14102,76.20337c5.55674,-0.28257 13.28408,-0.05801 19.02173,-0.05508l35.79917,-0.00088l23.14307,-0.00249c3.80566,-0.00645 7.90723,-0.09023 11.70557,0.09302c1.53516,0.20186 3.21533,1.04194 4.43701,1.93535c4.44434,3.24961 4.10156,7.77188 4.10742,12.62798l0.00293,8.44805c0,2.69678 0.03369,5.40762 -0.04834,8.10132c-0.02344,0.78047 -0.40283,1.24893 -1.18652,1.25903c-1.35059,-0.65713 -0.90088,-1.89346 -0.95215,-3.14546c-0.03076,-0.7377 0.00439,-1.52725 0.00732,-2.26978l0.03076,-11.13076c0.00732,-1.81875 0.1377,-5.92061 -0.24316,-7.50088c-0.3457,-1.44302 -1.0708,-2.76709 -2.10205,-3.83452c-1.48535,-1.52021 -3.43945,-2.28472 -5.5459,-2.34258c-2.63086,-0.07222 -5.28516,-0.03076 -7.92041,-0.03047l-17.75537,0.0022c-0.01318,2.54326 0.51563,10.09395 -0.69287,11.91899c-1.02393,0.75952 -7.00488,0.52764 -8.6543,0.52837l-12.0542,-0.00249l-7.57427,-0.0022c-6.09272,0.01128 -5.89014,0.49351 -5.88223,-5.72432l0.01348,-6.7229l-18.30674,0.00205c-2.6354,-0.00015 -5.28413,-0.03647 -7.91455,0.01948c-2.34155,0.04995 -4.14741,0.74648 -5.81646,2.37935c-3.13462,3.06606 -2.48936,7.60356 -2.48437,11.60742l-0.00557,11.99429l0.01406,43.60254l31.20366,0.00146c0.25942,-4.53662 1.99336,-8.86436 4.93828,-12.32505c3.45044,-3.99302 8.34448,-6.45381 13.60767,-6.84199c5.13574,-0.33794 10.19238,1.40728 14.02734,4.8416c4.25977,3.78853 6.62256,8.67539 6.93018,14.36206c1.9043,-0.0249 13.76953,-0.25342 14.77295,0.19482c0.37939,0.36328 0.35303,0.33545 0.47607,0.84961c-0.12598,0.50391 -0.08936,0.49219 -0.44971,0.854c-1.22754,0.41602 -12.61816,0.25195 -14.71729,0.24902c-0.20361,2.16064 -0.68408,4.28613 -1.43262,6.32373c-0.94043,2.22363 -1.85156,3.92871 -3.44238,5.79053c-3.42773,4.05176 -8.33057,6.56836 -13.62158,6.99316c-5.20605,0.38086 -10.34883,-1.33594 -14.28237,-4.7666c-4.28423,-3.70312 -6.42041,-8.77734 -6.79849,-14.354l-31.1981,0.01758l-0.0019,0.15234c-0.18164,15 -0.04014,30.29004 -0.01436,45.30469l-0.01055,13.03857c-0.00674,2.45801 -0.07983,4.96143 0.13462,7.40332c0.27407,3.12158 3.30747,6.51855 6.46479,6.97412c3.06782,0.44092 6.61318,0.23877 9.75938,0.23438h18.15439c0.01538,-1.85303 -0.44019,-9.67969 0.50024,-10.73291c0.41309,-0.46436 0.91348,-0.59033 1.51084,-0.64014c1.68765,-0.13916 3.46362,-0.04541 5.15991,-0.04541l10.07666,0.00586l9.00732,0.01025c1.70654,-0.00146 3.49951,-0.1084 5.19727,0.03955c0.53613,0.04541 0.89355,0.15234 1.29053,0.5332c1.05615,1.01221 0.58887,9.06592 0.58301,10.83252c1.61279,-0.01904 6.36914,-0.50098 7.29639,0.71338c0.0835,0.61816 -0.11719,1.32422 -0.83789,1.40039c-2.18848,0.23291 -4.48535,0.07324 -6.69727,0.07324l-16.53809,0.02197l-28.95322,-0.00586l-9.29238,0.01025c-3.74048,0.00439 -6.76787,0.42041 -10.04297,-1.70361c-2.40645,-1.54834 -4.08501,-4.00342 -4.6541,-6.80713c-0.31392,-1.53369 -0.24053,-4.27734 -0.24126,-5.93555l-0.00117,-7.75635l0.00688,-30.76611l0.00542,-58.04121l-0.00293,-17.95547c-0.00952,-3.38291 -0.0605,-6.85928 0.02402,-10.23281c0.04658,-1.85947 0.75659,-3.99785 1.80161,-5.53711c1.76689,-2.60229 4.1373,-3.90703 7.15811,-4.53296z" fill="#f9f8f8"/><path d="M133.70479,147.9668c0.20288,-4.01646 1.75122,-7.84805 4.396,-10.87808c3.0731,-3.57056 7.45444,-5.75347 12.15557,-6.05625c9.90381,-0.59897 18.01465,7.18286 18.54346,16.96509l-0.15967,0.01465c-1.97607,0.17432 -9.42187,-0.16406 -10.42236,0.55078c-0.12891,0.47021 -0.14062,0.69141 -0.18604,1.16602c1.6626,0.4292 6.4043,0.2417 8.23389,0.30322c0.7793,0.02637 1.77979,-0.08496 2.56787,0.04834c-0.28125,4.16309 -1.72705,7.81201 -4.50293,10.96143c-3.12744,3.60791 -7.58643,5.7876 -12.35303,6.03955c-4.56152,0.22559 -9.02827,-1.35352 -12.43345,-4.39746c-3.61553,-3.26367 -5.59878,-7.69922 -5.8689,-12.5332c2.95181,-0.01172 5.90786,0.03516 8.85967,0.01904c0.97954,-0.00439 2.39136,0.0249 2.87168,-0.95947c-0.09917,-0.56689 -0.10342,-0.53906 -0.44341,-0.9624c-0.86602,-0.52002 -9.69243,-0.28711 -11.25835,-0.28125z" fill="#0b1b2d"/><path d="M168.8335,150.08057c-1.41504,0.15674 -10.37109,0.34863 -11.2207,-0.17725c-0.26221,-0.1626 -0.38379,-0.56543 -0.39258,-0.854c-0.00879,-0.3208 0.10693,-0.6665 0.37793,-0.86279c0.69873,-0.50684 9.7998,-0.28564 11.20166,-0.18896l-0.15967,0.01465c-1.97607,0.17432 -9.42187,-0.16406 -10.42236,0.55078c-0.12891,0.47021 -0.14062,0.69141 -0.18604,1.16602c1.6626,0.4292 6.4043,0.2417 8.23389,0.30322c0.7793,0.02637 1.77979,-0.08496 2.56787,0.04834z" fill="#bebdbd"/><path d="M150.92285,146.13091c1.63477,-0.19292 3.12012,0.96577 3.32959,2.59907c0.20947,1.63184 -0.93457,3.12891 -2.56494,3.35596c-0.8584,0.11865 -1.72559,-0.13916 -2.38037,-0.70752c-0.65479,-0.56689 -1.03125,-1.39014 -1.03418,-2.25732c-0.00439,-1.5249 1.13525,-2.81133 2.6499,-2.99019z" fill="#f9f8f8"/><path d="M136.98135,78.35771l30.45762,0.00527l-0.01025,10.1584l-30.45762,0.00923z" fill="#0b1b2d"/><path d="M160.90137,214.08838l5.07422,-0.01904l-0.02051,9.18311l-23.95415,-0.00879l-5.03613,0.00146l-0.00103,-9.12891c7.91895,-0.09961 15.99521,-0.00439 23.9376,-0.02783z" fill="#0b1b2d"/><path d="M197.52246,139.99497c0.18457,0.052 0.72803,0.24023 0.79688,0.40488c0.64746,1.55566 3.27979,6.91216 1.80029,8.1939c-1.62891,0.53027 -2.11084,-2.00977 -2.48877,-3.15557c-0.91846,3.24346 -3.08936,8.43926 -4.56299,11.44365c-5.27637,10.75635 -14.13281,20.58252 -24.18896,27.09229c-2.09473,1.35645 -5.39502,3.32227 -7.71973,4.125c-2.4917,-1.82812 0.14063,-2.69531 1.55127,-3.45996c16.59668,-8.98975 26.61035,-22.60254 32.65869,-40.13511c-1.11182,0.82617 -4.85889,3.64585 -3.70605,-0.25518c0.08936,-0.30278 5.02588,-3.66709 5.85938,-4.25391z" fill="#25eb97"/><path d="M116.96558,173.65137c2.99766,-0.34863 5.71362,1.79004 6.07676,4.78711c0.36313,2.99561 -1.76294,5.72168 -4.75723,6.09961c-3.01465,0.37939 -5.76357,-1.76367 -6.12935,-4.78125c-0.36563,-3.01611 1.79165,-5.75391 4.80981,-6.10547z" fill="#25eb97"/><path d="M199.11328,124.02715c1.93359,-0.37178 3.91699,0.32505 5.19434,1.82432c1.27588,1.49927 1.64648,3.56924 0.97119,5.4186c-0.67529,1.84951 -2.29395,3.19263 -4.23486,3.51621c-2.95166,0.4916 -5.75098,-1.48125 -6.27832,-4.42632c-0.52881,-2.94521 1.40918,-5.76768 4.34766,-6.33281z" fill="#25eb97"/><path d="M139.89448,99.6895c2.95005,-0.04673 5.39355,2.279 5.49243,5.22773c0.09902,2.94873 -2.1832,5.43296 -5.12974,5.58398c-1.95293,0.10005 -3.80786,-0.86162 -4.85156,-2.51528c-1.04385,-1.65366 -1.11387,-3.7418 -0.18325,-5.46167c0.93062,-1.72002 2.71685,-2.80371 4.67212,-2.83477z" fill="#25eb97"/><path d="M120.6709,188.78027c1.58203,0.06152 5.19961,1.50732 6.79043,2.08887c0.6293,0.22852 0.4667,1.24512 0.00454,1.78564c-1.04253,0.42334 -2.08755,-0.01172 -3.23716,-0.28711c4.71973,6.01904 9.16626,7.95117 16.18931,8.90918c0.84902,0.11572 0.64834,1.35059 0.27349,2.05811c-0.85635,0.38086 -1.7915,0.30908 -2.71934,0.14355c-6.88989,-1.23047 -11.75508,-4.23486 -15.88682,-9.71484c-0.13374,1.1001 -0.21636,3.83496 -2.03115,2.91357c-1.10874,-1.40186 -0.08174,-5.43604 0.1062,-7.21875c0.01479,-0.14062 0.39067,-0.55225 0.5105,-0.67822z" fill="#25eb97"/><path d="M152.05811,196.84863c0.78369,-0.81445 3.1084,-3.47314 3.84375,-3.41748c3.84082,0.29004 -1.54541,4.82227 -2.04346,5.31299c0.89502,0.91406 3.44678,2.9502 3.39111,4.19678c-0.0249,0.58447 -0.56836,0.92139 -0.99756,1.23047c-1.25098,-0.21973 -3.15967,-2.50195 -4.18506,-3.55078c-1.00928,1.02686 -4.47949,5.55908 -5.17383,2.32324c-0.20508,-0.95654 2.63818,-3.479 3.33252,-4.16455c-1.01953,-1.11768 -2.34229,-2.10205 -3.15088,-3.35303c-0.59927,-0.92871 -0.09375,-1.49561 0.59619,-2.09912c1.28906,-0.01025 3.31348,2.49316 4.38721,3.52148z" fill="#f9f8f8"/><path d="M114.37354,118.55317c0.78501,-0.80039 2.97656,-3.41001 3.65728,-3.40957c4.20864,0.00278 -1.2627,4.69424 -1.82812,5.26157c0.90791,1.01147 2.00508,1.90635 2.85659,2.9376c0.95405,1.15547 0.59517,1.78315 -0.43916,2.55161c-1.17495,-0.12495 -3.26968,-2.64082 -4.2397,-3.63149c-0.96724,1.02451 -4.17026,5.35107 -5.18452,2.62808c0.02578,-1.51274 2.25176,-3.33721 3.38086,-4.47466c-0.43125,-0.43682 -0.90146,-0.877 -1.3147,-1.32979c-1.26108,-1.38193 -3.30264,-2.57842 -1.05381,-4.15195c1.16089,0.21709 3.18911,2.61357 4.16528,3.6186z" fill="#f9f8f8"/><path d="M175.59961,101.41362c0.88623,-0.89985 2.61328,-3.0564 3.65332,-3.46582c0.38232,-0.01011 0.80566,0.08042 1.09277,0.34673c1.37842,1.28203 -2.01855,4.00576 -2.96045,4.94282c1.42236,1.55859 5.16357,3.95713 2.18555,5.56509c-0.9668,-0.31523 -3.17578,-2.83638 -4.00928,-3.72568c-0.76465,0.79541 -3.07617,3.49014 -3.78516,3.45791c-3.93457,-0.17871 1.49707,-4.79839 1.99219,-5.28896c-1.4707,-1.53223 -4.99951,-3.71997 -2.22803,-5.43604c1.26855,0.5458 3.01465,2.5437 4.05908,3.60396z" fill="#f9f8f8"/><path d="M179.80225,118.72734c0.53613,-0.00981 2.35254,0.66665 2.85352,0.95903c1.43115,0.83584 1.37549,1.48022 0.43652,2.54971c-1.06348,-0.01479 -3.8833,-1.06025 -4.00928,-2.38857c0.13477,-0.58638 0.28271,-0.66401 0.71924,-1.12017z" fill="#25eb97"/><path d="M172.70215,115.52505c0.75146,0.07295 2.97803,0.88066 3.54346,1.4918c0.74561,0.8042 0.2124,1.42852 -0.45117,2.054c-1.71973,-0.4894 -5.3335,-1.38149 -3.09229,-3.5458z" fill="#25eb97"/><path d="M158.18994,109.52505c1.7373,0.54463 5.4624,1.12339 3.09521,3.48091c-1.67871,-0.55107 -5.5708,-1.22974 -3.09521,-3.48091z" fill="#25eb97"/><path d="M187.08838,122.09648c0.62695,0.00952 2.47266,0.81738 2.99121,1.21553c1.17334,0.90015 0.86865,1.61177 -0.09375,2.43867c-0.73975,-0.21416 -2.7832,-1.07446 -3.33691,-1.60225c-0.78516,-0.74854 -0.16992,-1.45312 0.43945,-2.05195z" fill="#25eb97"/><path d="M150.59473,106.87017c1.2876,0.21855 3.65039,0.74429 3.90967,2.16533c-0.15381,0.63735 -0.27246,0.69141 -0.75146,1.18462c-0.7002,-0.05801 -2.92383,-0.77402 -3.4541,-1.28174c-0.78223,-0.7481 -0.3252,-1.39746 0.2959,-2.06821z" fill="#25eb97"/><path d="M165.45557,112.45151c0.48047,0.03633 2.22803,0.64937 2.69678,0.89458c1.44727,0.75952 1.33008,1.55933 0.40869,2.59116c-1.25391,-0.26338 -3.60937,-0.93208 -3.84521,-2.31211c0.16992,-0.63193 0.26953,-0.67852 0.73975,-1.17363z" fill="#25eb97"/></g></svg>