<svg id="svg" version="1.1" viewBox="0 0 298.0815347721822 300" width="298.0815347721822" height="300" xmlns="http://www.w3.org/2000/svg"><svg xmlns="http://www.w3.org/2000/svg"><defs><clipPath id="clip-1"><rect x="0" y="0" transform="scale(0.14648,0.14648)" width="2035" height="2048" fill="none"/></clipPath><linearGradient x1="191.00655" y1="26.60918" x2="93.32574" y2="315.36914" gradientUnits="userSpaceOnUse" id="color-1"><stop offset="0" stop-color="#00c7bb"/><stop offset="1" stop-color="#0344dd"/></linearGradient><linearGradient x1="171.41226" y1="-13.17419" x2="161.4474" y2="42.45996" gradientUnits="userSpaceOnUse" id="color-2"><stop offset="0" stop-color="#00d6a1"/><stop offset="1" stop-color="#01c1b8"/></linearGradient></defs><g clip-path="url(#clip-1)" fill="none" fill-rule="nonzero" stroke="none" stroke-width="1" stroke-linecap="butt" stroke-linejoin="miter" stroke-miterlimit="10" stroke-dasharray="" stroke-dashoffset="0" font-family="none" font-weight="none" font-size="none" text-anchor="none" style="mix-blend-mode: normal"><path d="M28.55387,7.54402c6.54769,-3.93649 14.62094,-6.34072 22.19719,-7.05937c3.00909,-0.28543 6.86803,-0.19465 9.95182,-0.19838l15.37075,-0.00488l48.82253,0.00208l82.4309,0.00992l23.95052,0.00945c8.58944,0.01068 15.89866,-0.44962 24.36212,1.52161c23.0658,5.37261 39.35262,27.01349 41.86471,50.00202c0.38524,3.53657 0.33104,7.5876 0.26805,11.17192l0.02051,125.45962l-0.00293,38.71729c-0.00732,9.25195 0.51707,20.4082 -1.26996,29.27783c-2.16494,10.33154 -7.22427,19.83252 -14.58622,27.39404c-7.56556,7.86768 -17.41031,13.15869 -28.14417,15.12598c-1.84854,0.34277 -3.71174,0.59619 -5.58518,0.75586c-0.66794,0.05713 -2.92808,0.16699 -3.37191,0.271h-174.62378c-0.74923,-0.13916 -3.52322,-0.11133 -4.42406,-0.11426c-2.65344,-0.00439 -5.30673,-0.02344 -7.96002,-0.06006c-2.57288,-0.03662 -5.29267,-0.0249 -7.84284,-0.28125c-10.27334,-0.99756 -20.05613,-4.87646 -28.22151,-11.18994c-11.75218,-9.20801 -19.38431,-22.69043 -21.22993,-37.50586c-0.34931,-2.99561 -0.28479,-6.01758 -0.3747,-9.02783c-0.04133,-1.38281 0.03327,-2.78027 -0.15576,-4.1543v-147.10635c0.12888,-0.71587 0.10452,-2.80122 0.10753,-3.62197l0.0158,-6.68364c-0.00922,-6.61406 0.01711,-13.22813 0.07897,-19.84189c0.04091,-2.6811 -0.05311,-5.79272 0.19182,-8.40454c1.57572,-16.80234 13.10853,-36.51533 28.15975,-44.46409zM187.88511,114.00542c1.05024,1.72998 3.35433,8.09561 4.17754,10.21465l6.54754,16.57441c1.05464,2.64023 2.47986,6.48384 3.67219,9.02827c6.59148,-5.84561 11.64056,-11.43442 17.46304,-17.86743c-1.11469,-3.79775 -3.11411,-8.22627 -4.65359,-11.94712l-10.61375,-25.87515c-1.5717,-3.85063 -3.9754,-9.30527 -5.31713,-13.12793l-22.67177,-0.0082c-7.47035,19.36406 -15.09157,38.6688 -22.86512,57.9126l-6.45233,15.97134c-4.86202,12 -9.69344,24.56396 -22.43682,30.19629c-9.71951,4.29492 -21.68378,4.21729 -31.52663,0.47021c-9.71277,-3.6416 -17.54961,-11.04199 -21.74164,-20.52979c-4.76989,-10.66846 -5.57786,-24.49014 -1.37908,-35.4356c3.85162,-10.26387 11.64159,-18.56484 21.64013,-23.05957c9.85207,-4.27646 21.01145,-4.40303 30.95815,-0.35142c4.74938,1.89404 7.87653,3.99639 11.8799,6.98086c0.70778,-1.17129 2.59133,-5.91753 3.20302,-7.37388c2.24887,-5.32471 4.46126,-10.6645 6.63733,-16.01924c-10.4935,-7.0062 -25.0346,-11.27725 -37.58684,-11.13018c-1.28124,0.01509 -4.08643,-0.05171 -5.31537,0.09609c-18.44707,1.51509 -32.92739,7.78857 -45.14492,21.99697c-23.12776,26.89614 -22.82221,73.00444 5.25078,96.35845c14.71673,12.24463 33.65641,17.20752 52.58583,15.48193c14.59677,-1.19824 30.34734,-7.66406 39.84303,-19.08691c8.41513,-10.12354 14.07501,-26.71289 18.70956,-39.13477l9.70559,-26.09341l3.23862,-8.7397c0.6196,-1.66685 1.41058,-3.9334 2.19277,-5.50181zM241.70824,164.74512c-14.06623,0.98291 -24.67705,13.1792 -23.70297,27.24756c0.97407,14.06836 13.16393,24.68555 27.23162,23.71875c14.07941,-0.9668 24.70635,-13.16895 23.73227,-27.24756c-0.97554,-14.08008 -13.18297,-24.7002 -27.26091,-23.71875zM266.04985,123.39551c0.03223,-1.5561 -1.31976,-9.06592 -1.64494,-11.05078l-3.89776,-23.41128c-0.4614,-2.74497 -1.42523,-7.31807 -1.73136,-9.85063c-11.70355,8.82056 -23.35582,17.70806 -34.9583,26.66221c4.56277,1.60342 9.66751,3.29839 14.11896,5.09663c-7.26235,19.92949 -20.05862,39.5187 -39.86383,48.72378c-5.14575,2.37451 -10.58739,4.04443 -16.17843,4.96582c-1.76359,0.27686 -3.53304,0.33545 -5.2351,0.5874c-2.05801,5.2207 -4.17607,11.37012 -5.97188,16.72119c19.73783,1.10156 38.93516,-6.5625 53.61513,-19.60254c13.63412,-12.11279 21.66254,-28.37886 28.4342,-44.99414c4.42362,1.82241 8.89264,4.22461 13.31333,6.15234z" fill="url(#color-1)"/><path d="M28.55387,7.54402c6.54769,-3.93649 14.62094,-6.34072 22.19719,-7.05937c3.00909,-0.28543 6.86803,-0.19465 9.95182,-0.19838l15.37075,-0.00488l48.82253,0.00208l82.4309,0.00992l23.95052,0.00945c8.58944,0.01068 15.89866,-0.44962 24.36212,1.52161c23.0658,5.37261 39.35262,27.01349 41.86471,50.00202c0.38524,3.53657 0.33104,7.5876 0.26805,11.17192c-0.76461,0.18574 0.00879,2.83857 -0.65329,3.61846c-1.89395,-0.03853 -1.40472,-1.72734 -1.8588,-2.38228c-0.20653,0.74868 0.04834,1.477 -0.19774,2.25674c-0.68844,-0.36694 -0.65768,-2.27256 -1.12788,-3.00762c-0.64157,-1.00298 -1.53362,-1.11094 -2.62927,-1.34106c-0.92574,-0.19438 -0.90523,-1.00107 -1.48968,-2.01929c-0.55808,-0.29575 -1.07075,0.10444 -1.51751,0.49717c-2.81823,2.47998 -4.90699,0.23862 -7.95958,0.09111c-0.2871,-0.39668 -0.14648,-0.32754 -0.53318,-0.50654l-0.22704,0.37515c-0.31639,-0.08276 -0.40135,-0.16274 -0.64743,-0.37573l-0.25634,0.39595c-0.84371,-0.07104 -1.65959,-0.19409 -2.52674,-0.29707c-0.76608,-0.09082 -3.02769,0.29883 -3.68098,0.02446c-0.97407,-0.40986 -2.07851,-1.22607 -3.08188,-1.69204c-1.54094,-0.71572 -3.38656,0.05479 -4.9568,-0.55708c-0.53464,-0.25034 -2.08144,-1.42544 -2.66442,-1.57354c-2.15322,-0.41162 -3.96221,0.79805 -6.17109,0.43213c-2.09463,-0.34717 -3.84796,-1.10229 -5.87521,-1.65762c-1.3637,-0.37339 -2.80651,0.16421 -4.00469,-0.93076c-0.06884,-0.40386 -0.06591,-0.72803 -0.07617,-1.13394l-0.13036,0.05405l-0.14648,0.59575c-0.33104,-0.08921 0.07177,-0.60293 -0.25048,-0.94028l-0.08789,0.94131c-0.83053,0.4897 -1.78409,0.94292 -2.35682,0.05991c0.06884,0.10752 -0.54343,0.08672 -0.67233,0.04497c0.00293,-0.48662 0.0498,-0.60249 -0.09082,-1.05864c-0.12158,0.36475 -0.20946,0.59927 -0.3618,0.952l-0.29735,0.04087c-1.48675,-0.92563 -1.98477,-0.26821 -3.36459,-0.77256c-2.08144,-0.76069 -2.91783,-2.66382 -5.30541,-1.69614c-0.20214,0.08218 -2.16933,-0.68979 -2.62048,-0.76787c-0.95503,-0.16538 -2.11367,-0.02988 -3.09507,-0.05845c-1.11909,-0.02095 -3.36019,0.6022 -4.37382,0.22148c-1.41497,-0.5313 -2.79918,-0.802 -4.3123,-0.88213c-0.34569,-0.01831 -1.12788,-0.87012 -1.39007,-0.91934c-1.12495,-0.21167 -3.6927,-1.24585 -4.62722,-1.35571c-1.90128,-0.14326 -3.76154,-0.80581 -5.64524,-1.00942c-3.06138,-0.3312 -6.08907,-0.13037 -9.1358,-0.80142c-0.62106,-0.13667 0.2871,-0.44399 -0.25194,-0.42568c-0.51707,0.01743 -1.13081,0.11865 -1.65227,0.16509c-0.4116,-0.27686 -0.38084,-0.72759 -0.83492,-0.89736c-0.99019,-0.36943 -2.45643,-0.08013 -3.24155,-0.78882c-0.27684,-0.2499 -0.15673,-0.18618 -0.51853,-0.32622l-0.89351,0.66094l-0.19042,-0.05068c-0.92134,-1.74668 -1.47796,-2.23345 -3.14926,-3.16318c-2.21327,-1.23076 -2.79918,0.88726 -4.36796,1.41255l-0.17577,-0.15703l0.04248,-0.74751c-0.82174,0.04438 -1.7299,0.80669 -2.69811,0.68716c-0.79684,0.10254 -3.10679,-1.10581 -3.67365,-1.05234c-1.43694,0.13579 -1.28754,0.45835 -3.01743,0.25664c-2.5033,-0.29194 -4.35477,-1.81992 -6.7365,-2.10059c-1.82218,-0.21445 -4.18193,1.25991 -6.1374,0.7522c-0.73239,-0.17212 -1.80167,-0.78486 -2.52088,-0.85781c-1.41204,-0.14326 -2.95152,0.18267 -4.26982,-0.54536c-0.26512,-0.14663 -0.40281,-0.21826 -0.70749,-0.23496c-1.8588,0.95449 -1.33734,-0.25298 -2.95591,-1.14595c-0.40867,-0.01963 -1.73869,0.2042 -2.07119,0.07646c-1.93702,-0.74326 -6.40223,-2.75112 -8.44105,-2.87021c-2.83756,-0.16567 -3.84445,-1.60444 -5.62839,-1.85376c-3.95108,-0.55225 -4.60452,1.02598 -8.53861,-1.10581l-0.02988,-0.58374l-0.29911,0.54902c-0.88355,0.2313 -2.39022,-0.13711 -3.08247,-0.75146c-0.36619,-0.3249 -0.23524,-0.61582 -0.23041,-1.09219l-0.17006,-0.02681c-0.04922,0.48882 -0.0186,0.51167 -0.30438,0.92856c-1.56702,0.97734 -2.11059,-0.97837 -2.32064,-0.89092c-2.23202,0.30967 -4.56936,-0.31875 -6.75114,-0.49072c-1.45203,-0.1144 -1.9168,-0.47065 -3.12495,-0.96709c-0.05127,-0.02109 -2.24726,0.40195 -2.45379,0.30366c-0.66999,-0.16963 -2.84239,-2.54224 -3.41908,-2.49023c-1.5427,0.13916 -2.1103,0.12437 -3.8153,-0.34307c-1.28915,-0.35347 -3.42303,-0.35347 -4.757,-0.84346c-0.1913,-0.23555 -0.70661,-0.86719 -0.99868,-0.93999c-1.80929,-0.45117 -4.06563,-1.23735 -5.83669,-1.65103c-0.8566,-0.2001 -3.0999,0.2644 -4.06109,-0.30161c-0.07719,-0.04541 -1.07192,-0.35889 -1.07412,-0.3583c-0.27948,0.0832 -0.85616,0.20347 -1.15439,0.29355c-1.15805,0.3501 -3.01436,0.55269 -4.21445,0.29854c-0.70631,-0.14956 -2.44485,-0.90996 -3.13286,-1.27104c-0.39769,-0.20859 -2.36239,-1.50791 -2.69694,-1.52476c-1.93365,-0.09727 -4.07266,-0.14224 -6.03487,-0.3375c-0.70412,-0.07002 -2.32767,0.19731 -2.95958,0.05479c-2.64069,-0.59502 -5.29281,-1.84966 -7.85602,-2.68799c-0.93423,-0.30557 -3.00572,0.54727 -4.0126,0.5937c-0.38172,0.01772 -1.62707,-1.13042 -2.09551,-1.31748c-0.69855,-0.27891 -2.3035,-0.36636 -2.90011,-0.67852c-0.99297,-0.51951 -2.22939,-1.7008 -3.27055,-2.12284c-1.86993,-0.75798 -4.29106,-0.57814 -6.18794,-1.34158c-0.39007,-0.15697 -1.30057,0.2803 -1.68683,0.27558c-1.82115,-0.02224 -4.65535,-0.84967 -6.34511,-1.55358c-0.18178,-0.07576 -0.15073,-0.27072 -0.18017,-0.48542c0.44763,-1.03692 1.64816,-1.62693 2.58196,-2.44682l-0.12861,-0.0651c-0.53845,0.25487 -0.59426,0.28938 -1.18515,0.25872z" fill="url(#color-2)"/></g></svg></svg>